<?xml version="1.0" encoding="UTF-8" standalone="no"?>
<!DOCTYPE svg  PUBLIC '-//W3C//DTD SVG 1.1//EN'  'http://www.w3.org/Graphics/SVG/1.1/DTD/svg11.dtd'>
<svg id="Layer_1" xmlns:sketch="http://www.bohemiancoding.com/sketch/ns" xmlns="http://www.w3.org/2000/svg" xml:space="preserve" viewBox="-208.5 20.5 100 100" version="1.1" xmlns:xlink="http://www.w3.org/1999/xlink" enable-background="new -208.5 20.5 100 100"><circle cy="70.5" cx="-158.5" r="50" fill="#1E1F24"/><circle cy="70.5" cx="-158.5" r="50" fill="none"/><defs><circle id="SVGID_1_" cy="70.5" cx="-158.5" r="50"/></defs><defs><circle id="SVGID_2_" cy="70.5" cx="-158.5" r="50"/></defs><clipPath id="SVGID_3_"><use overflow="visible" xlink:href="#SVGID_1_"/></clipPath><clipPath id="SVGID_4_" clip-path="url(#SVGID_3_)"><use overflow="visible" xlink:href="#SVGID_2_"/></clipPath><path fill="#D4B08C" d="m-143.5 96.4l27.9 7.7c3.2 1.1 5.7 3.5 7.1 6.6v9.8h-100v-9.8c1.3-3.1 3.9-5.5 7.1-6.6l27.9-7.7v-14.9h30v14.9z" clip-path="url(#SVGID_4_)"/><g clip-path="url(#SVGID_4_)"><defs><path id="SVGID_5_" d="m-143.5 96.4l27.9 7.7c3.2 1.1 5.7 3.5 7.1 6.6v9.8h-100v-9.8c1.3-3.1 3.9-5.5 7.1-6.6l27.9-7.7v-14.9h30v14.9z"/></defs><clipPath id="SVGID_6_"><use overflow="visible" xlink:href="#SVGID_5_"/></clipPath><path fill="#70A619" d="m-158.3 100.5h-7.2l-4.8-5h-38.2v25h100.4v-25h-38.2l-4.8 5h-7.2z" clip-path="url(#SVGID_6_)"/></g><path d="m-158.5 94.5c-1.5 0-3.5-0.3-4.8-0.9-1.6-0.7-7.2-4.6-9.1-6.3-2.5-2.3-3.8-5.1-4.2-10s-1.9-22.4-1.9-26.4c0-5.7 5.1-14.5 19.9-14.5s19.9 8.8 19.9 14.5c0 4-1.5 21.5-1.9 26.4s-1.6 7.7-4.2 10c-1.9 1.7-7.6 5.6-9.1 6.3-1.1 0.6-3.1 0.9-4.6 0.9z" fill="#F2CEA5"/><defs><path id="SVGID_7_" d="m-158.5 94.5c-1.5 0-3.5-0.3-4.8-0.9-1.6-0.7-7.2-4.6-9.1-6.3-2.5-2.3-3.8-5.1-4.2-10s-1.9-22.4-1.9-26.4c0-5.7 5.1-14.5 19.9-14.5s19.9 8.8 19.9 14.5c0 4-1.5 21.5-1.9 26.4s-1.6 7.7-4.2 10c-1.9 1.7-7.6 5.6-9.1 6.3-1.1 0.6-3.1 0.9-4.6 0.9z"/></defs><clipPath id="SVGID_8_"><use overflow="visible" xlink:href="#SVGID_7_"/></clipPath><path fill="#F2CEA5" d="m-158.5 94.5c-1.5 0-3.5-0.3-4.8-0.9-1.6-0.7-7.2-4.6-9.1-6.3-2.5-2.3-3.8-5.1-4.2-10s-1.9-22.4-1.9-26.4c0-5.7 5.1-14.5 19.9-14.5s19.9 8.8 19.9 14.5c0 4-1.5 21.5-1.9 26.4s-1.6 7.7-4.2 10c-1.9 1.7-7.6 5.6-9.1 6.3-1.1 0.6-3.1 0.9-4.6 0.9z" clip-path="url(#SVGID_8_)"/><path fill="#fff" d="m-158.6 80.5c-2.2-0.1-1.4-2-4.7-2s-5.4 1.7-6.3 3l-8-11v27h38.2v-27l-8 11c-1-1.2-3-2.9-6.3-3s-2.7 1.9-4.9 2c0.1 0 0 0 0 0zm0 2c-2.4 0-1.5-1-4.1-1-3.5 0-5 0.7-5 2.5s1.2 4.3 5 4.5c1.1-0.1 1.7-0.4 2-0.8 0-0.6 0.4-1.3 2.1-1.2 1.7-0.1 2 0.6 2.1 1.2 0.3 0.4 0.9 0.8 2 0.8 3.8-0.2 5-2.7 5-4.5s-1.5-2.5-5-2.5c-2.5 0-1.7 1-4.1 1 0.1 0 0 0 0 0z" clip-path="url(#SVGID_8_)"/><path fill="#A3705F" d="m-155.5 85.5h-6c-0.6 0-1-0.4-1-1s0.4-1 1-1h6c0.6 0 1 0.4 1 1s-0.4 1-1 1z" clip-path="url(#SVGID_8_)"/><path fill="#262626" d="m-149.5 67.5c1.1 0 2-0.9 2-2s-0.9-2-2-2-2 0.9-2 2 0.9 2 2 2zm-18 0c1.1 0 2-0.9 2-2s-0.9-2-2-2-2 0.9-2 2 0.9 2 2 2z" clip-path="url(#SVGID_8_)"/><path fill="#CC9872" d="m-161.9 64c-0.5-0.8-1.9-2.5-5.5-2.5-4.1 0-5.1 2.3-5.1 2.4l-1.9-0.7c0.1-0.1 1.4-3.6 7-3.6 4.6 0 6.6 2.4 7.2 3.5l-1.7 0.9z" clip-path="url(#SVGID_8_)"/><path fill="#BB8660" d="m-157.5 74.5v-9c0-2.5 2.5-5.9 8-6 5.5 0 6.9 3.5 7 3.6l-1.9 0.7c0-0.1-1-2.3-5.1-2.4-4.1 0-6 2.4-6 4v9l-2 0.1z" clip-path="url(#SVGID_8_)"/><path d="m-173.4 94.9l1.7-2.8 12.9 5.9 13.1-4.9 2.2 2.2v6.5s-10.8 10.6-15 10.7c-4.2 0-14.9-11.5-14.9-11.5v-6.1z" fill="#D4B08C"/><path d="m-143.5 96.4c-0.1 2.4 0 2.4 0 4.3 0 14.1-8.5 19.7-8.5 19.7h-1.8-4.4-4.3-1.8s-9.2-6.7-9.2-18.7v-5.3c1 1 2.7 8.3 15.4 8.3s13.6-7.3 14.6-8.3z" fill="#fff"/><rect y="50.5" width="17.9" height="2" x="-167.4" fill="#E1BC90"/><rect y="54.5" width="9.9" height="2" x="-163.4" fill="#E1BC90"/><path d="m-145.9 39.7s3.5 4.4 4 10.9c0.2 2.9-1 5 1.4 10.6 1.1 2.5 1.1 3 1.1 4 2.7-8.5 4.4-20.5-6.5-25.5zm-25.2 0s-3.5 4.4-4 10.9c-0.2 2.9 1 5-1.4 10.6-1.1 2.5-1.1 3-1.1 4-2.7-8.5-4.4-20.5 6.5-25.5z" fill="#fff"/></svg>
