<?xml version="1.0" encoding="UTF-8" standalone="no"?>
<!DOCTYPE svg  PUBLIC '-//W3C//DTD SVG 1.1//EN'  'http://www.w3.org/Graphics/SVG/1.1/DTD/svg11.dtd'>
<svg id="female1" xmlns:sketch="http://www.bohemiancoding.com/sketch/ns" xmlns="http://www.w3.org/2000/svg" xml:space="preserve" height="100px" viewBox="-27 24 100 100" width="100px" version="1.1" xmlns:xlink="http://www.w3.org/1999/xlink" enable-background="new -27 24 100 100"><circle cy="74" cx="23" r="50" fill="#F5EEE5"/><defs><circle id="SVGID_1_" cy="74" cx="23" r="50"/></defs><clipPath id="SVGID_2_"><use overflow="visible" xlink:href="#SVGID_1_"/></clipPath><rect clip-path="url(#SVGID_2_)" height="43" width="31" y="65" x="-3" fill="#D98C21"/><rect clip-path="url(#SVGID_2_)" height="47" width="31" y="61" x="18" fill="#CC751F"/><path fill="#E6C19C" d="m36 95.9c0 4 4.7 5.2 7.1 5.8 7.6 2 22.8 5.9 22.8 5.9 3.2 1.1 5.7 3.5 7.1 6.6v9.8h-100v-9.8c1.3-3.1 3.9-5.5 7.1-6.6 0 0 15.2-3.9 22.8-5.9 2.4-0.6 7.1-1.8 7.1-5.8v-10.9h26v10.9z" clip-path="url(#SVGID_2_)"/><g clip-path="url(#SVGID_2_)"><defs><path id="SVGID_3_" d="m36 95.9c0 4 4.7 5.2 7.1 5.8 7.6 2 22.8 5.9 22.8 5.9 3.2 1.1 5.7 3.5 7.1 6.6v9.8h-100v-9.8c1.3-3.1 3.9-5.5 7.1-6.6 0 0 15.2-3.9 22.8-5.9 2.4-0.6 7.1-1.8 7.1-5.8v-10.9h26v10.9z"/></defs><clipPath id="SVGID_4_"><use overflow="visible" xlink:href="#SVGID_3_"/></clipPath><path fill="#D4B08C" d="m23.2 35h0.2c3.3 0 8.2 0.2 11.4 2 3.3 1.9 7.3 5.6 8.5 12.1 2.4 13.7-2.1 35.4-6.3 42.4-4 6.7-9.8 9.2-13.5 9.4h-0.1-0.2-0.2-0.1c-3.7-0.2-9.5-2.7-13.5-9.4-4.2-7-8.7-28.7-6.3-42.4 1.2-6.5 5.2-10.2 8.5-12.1 3.2-1.8 8.1-2 11.4-2h0.2z" clip-path="url(#SVGID_4_)"/><path fill="#6B363E" d="m-27 82h100v42h-100v-42zm50 31c12.1 0 20.8-14.1 20.8-14.1s-9.9-15.9-20.8-15.9-20.8 15.9-20.8 15.9 8.7 14.1 20.8 14.1z" clip-path="url(#SVGID_4_)"/><g clip-path="url(#SVGID_4_)"><defs><path id="SVGID_5_" d="m-27 82h100v42h-100v-42zm50 31c12.1 0 20.8-14.1 20.8-14.1s-9.9-15.9-20.8-15.9-20.8 15.9-20.8 15.9 8.7 14.1 20.8 14.1z"/></defs><clipPath id="SVGID_6_"><use overflow="visible" xlink:href="#SVGID_5_"/></clipPath><path fill="#fff" d="m45.4 101.7c-1.3 10-9.3 17.3-9.3 17.3s-8.2-7-10.2-7.6c12.7-7.6 17.1-12 17.1-12s3.6-7.7 2.4 2.3zm-44.7 0c1.3 10.1 9.3 17.3 9.3 17.3s8.2-7 10.2-7.6c-12.7-7.6-17.1-12-17.1-12s-3.6-7.7-2.4 2.3z" clip-path="url(#SVGID_6_)"/></g></g><path d="m23 40c19.1 0 20.7 13.8 20.8 15.1 1.1 11.9-3 28.1-6.8 33.7-4 5.9-9.8 8.1-13.5 8.3h-0.3l-0.2-0.1c-3.8-0.2-9.6-2.4-13.6-8.3-3.8-5.6-7.9-21.8-6.8-33.8 0.1-1.2 1.3-14.9 20.4-14.9z" fill="#F2CEA5"/><path d="m18.8 85c-0.2 0-0.4 0.4-0.3 0.7 0.9 2.1 2.3 3.3 4.2 3.4 2 0.2 4.1-1.2 5.2-3.4 0.1-0.3 0-0.7-0.3-0.7h-8.8z" fill="#A3705F"/><circle cy="69" cx="32" r="2" fill="#262626"/><circle cy="69" cx="14" r="2" fill="#262626"/><path stroke="#CC9872" stroke-width="2" d="m8.5 64.2s1.4-1.2 4.9-1.2c2.5 0 4.9 0.7 6.4 2.6" fill="none"/><path stroke="#BB8660" stroke-width="2" d="m37.4 64.2s-1.4-1.2-4.9-1.2-6.9 1.5-7.7 5.7 0.3 7.7 2.1 10.1" fill="none"/><path d="m-3 69.3c2.4-0.9 7.2-3.5 12-11.9 6.8-12 17.2-6.5 20.5-2.6 0.4 0.4 0.9 0.2 0.9 0.2s8.6-3.7 12 3.8c2.5 5.5 3.9 7.1 6.5 8.8v-7.9c0.1-15.5-9.4-15.7-9.8-15.7s-0.7 0-0.9-0.6c-0.9-2.9-10.2-12.5-25.8-6.4s-15.4 28-15.4 28v4.3z" fill="#E6A422"/><defs><path id="SVGID_7_" d="m-3 69.3c2.4-0.9 7.2-3.5 12-11.9 6.8-12 17.2-6.5 20.5-2.6 0.4 0.4 0.9 0.2 0.9 0.2s8.6-3.7 12 3.8c2.5 5.5 3.9 7.1 6.5 8.8v-7.9c0.1-15.5-9.4-15.7-9.8-15.7s-0.7 0-0.9-0.6c-0.9-2.9-10.2-12.5-25.8-6.4s-15.4 28-15.4 28v4.3z"/></defs><clipPath id="SVGID_8_"><use overflow="visible" xlink:href="#SVGID_7_"/></clipPath><path fill="#D98C21" d="m29.8 55.6s3-7.5 9-12.1 11.2 7.4 11.2 7.4l0.3 19.6-20.5-14.9z" clip-path="url(#SVGID_8_)"/></svg>
